Patient4_TMGait_0pt4_03_left_34_EMG.mot
version=1
nRows=23
nColumns=33
inDegrees=no
endheader
time	1LAddLong	2LGlutMax	3LGlutMed	4LIliopsoas	5LSemiMemb	6LBicFemLong	7LRecFem	8LVastMed	9LVastLat	10LGasMed	11LTibAnt	12lTibPost	13LPeroneusLong	14LSol	15LExtDigLong	16LFlexDigLong	17RAddLong	18RGlutMax	19RGlutMed	20RIliopsoas	21RSemiMemb	22RBicFemLong	23RRecFem	24RVastMed	25RVastLat	26RGasMed	27RTibAnt	28RTibPost	29RPeroneusLong	30RSol	31RExtDigLong	32RFlexDigLong
45.89	0.003967	0.029602	-0.042267	0.001984	0.05722	-0.025635	0.1088	0.006409	-0.03479	0.14542	0.007935	0.000153	0.023041	-0.04715	-0.009155	-0.015411	0.1033	-0.73563	-0.19455	0.16983	-0.10666	-0.19806	-0.11032	-0.081177	0.057831	-0.00824	0.009155	0.006561	-0.039063	-0.048828	-0.005188	-0.000916
45.891	0.003204	0.03952	-0.022583	-0.005798	0.059509	0.005341	0.13794	-0.000153	-0.041656	0.14023	0.018463	0.006104	0.044403	-0.000305	-0.009766	-0.019836	0.12894	-0.79544	0.013275	0.19363	-0.19699	-0.16998	-0.052338	-0.000916	0.012817	-0.008392	-0.005341	0.005188	-0.046234	-0.035706	-0.00351	-0.003815
45.892	0.007629	0.081329	-0.039673	0.006256	0.043182	0.034332	0.14832	0.009003	-0.042419	0.16769	0.004425	-0.010681	0.075989	-0.048523	-0.00061	-0.027618	0.041962	-0.75668	0.61752	0.088196	-0.26291	-0.11231	-0.05722	0.027771	0.023041	-0.011749	-0.003357	0.005035	-0.045013	-0.063629	0.000458	-0.005341
45.893	0.001373	0.10529	-0.060425	0.000305	0.023346	0.050049	0.13901	-0.003357	-0.03067	-0.53223	-0.002441	-0.003357	0.040588	-0.066681	0.016174	-0.034332	-0.018005	-0.73502	0.50461	-0.031586	-0.11795	-0.062256	-0.13886	0.18646	0.067291	-0.00946	-0.002594	0.00351	-0.02594	-0.041656	-0.004272	-0.010376
45.894	-0.002441	0.10513	-0.045929	-0.000916	0.003204	0.06073	0.14603	0.007629	-0.033875	-0.44449	-0.009155	0	0.013885	-0.037689	0.008545	-0.030823	-0.017548	-0.76843	0.215	-0.1062	-0.075684	-0.091705	-0.14633	0.2327	0.021973	-0.008545	0.018311	0.005341	-0.069122	-0.049744	-0.000763	-0.008545
45.895	-0.003052	0.093384	-0.050507	0.005646	-0.002594	0.053406	0.17929	0.010986	-0.045776	-0.25742	-0.034332	-0.001984	-0.009155	0.015106	-0.001068	-0.024414	0.012817	-0.75073	-0.22964	-0.089417	-0.028534	-0.17075	-0.12146	0.1622	-0.050507	-0.003662	0.030212	0.004272	-0.17654	-0.068817	-0.006714	0.000763
45.896	-0.006256	0.093231	-0.035248	0.014801	-0.012207	0.030975	0.17929	0.005341	-0.030212	-0.28412	-0.013733	-0.001221	0.006409	0.086975	-0.003357	-0.022583	-0.003357	-0.76111	-0.35034	-0.053711	0.046844	-0.15274	-0.1091	0.1506	-0.04425	-0.001068	0.03006	0.003204	-0.19714	-0.057526	-0.005341	-0.003967
45.897	-0.006256	0.066681	-0.091858	0.003357	-0.017853	-0.020142	0.15213	0.003204	-0.0354	-0.43015	-0.005188	0.010071	-0.014648	0.17166	0.008698	-0.024109	0.04425	-0.72418	-0.5249	-0.056915	0.15686	-0.16647	-0.12299	0.11902	-0.085297	0.002441	0.032959	0.005341	-0.097961	-0.078278	-0.001831	-0.000305
45.898	0.00473	0.08255	-0.014191	0.005188	-0.032196	-0.093536	0.15472	0.005646	-0.035095	-0.35568	-0.010529	0.002136	-0.010834	0.24735	0.014648	-0.021515	0.055695	-0.64682	-0.4808	-0.14435	0.077515	-0.12344	-0.09491	0.039368	-0.20706	0.003052	-0.00412	-0.002747	0.033722	-0.0737	-0.001526	0.002594
45.899	0.005951	0.094604	-0.00351	-0.00351	0.001984	-0.15549	0.15701	0.002289	-0.027313	-0.25879	0.006866	-0.003052	0.012512	0.224	0.018005	-0.011749	0.055847	-0.54703	-0.058899	-0.26794	-0.058441	-0.032196	-0.031738	-0.075531	-0.26855	-0.003052	-0.004272	-0.002594	-0.078888	-0.037689	0.001221	-0.000153
45.9	0.009766	0.07309	-0.007935	0.00351	0.051422	-0.1265	0.1564	0.00885	-0.042419	-0.1619	0.006561	-0.000458	-0.001678	0.11871	0.034332	-0.016785	0.006104	-0.49774	0.24567	-0.22812	0.055542	0.093689	-0.093079	0.015106	-0.15076	0.004272	-0.032349	0.005035	0.25757	-0.10544	-0.001373	0.001678
45.901	0.002441	0.07431	-0.058441	0.011139	0.079651	-0.079041	0.17319	0	-0.045013	-0.055542	0.006866	-0.001984	-0.050507	0.045166	0.022278	-0.001526	-0.040588	-0.45761	-0.033875	-0.024261	0.23453	0.045624	-0.31296	0.16083	-0.008698	0.002594	-0.014343	0.012817	0.22324	-0.1152	0.001831	-0.009613
45.902	0.000305	0.075836	-0.056152	0.010834	0.049591	-0.05127	0.14526	0.010681	-0.040741	-0.052338	0.005035	-0.005341	-0.042725	0.037689	0.035706	-0.007782	-0.058441	-0.39917	-0.51865	0.19638	0.3537	0.029602	-0.41657	0.20065	0.22201	0	0.013885	0.003662	-0.28534	-0.07309	-0.001984	-0.005493
45.903	0	0.094452	-0.040894	0.003052	0.021515	-0.021057	0.1152	0.009766	-0.03952	0.004272	0.012512	-0.00061	-0.024261	0.028992	0.036621	-0.006256	-0.007629	-0.35568	0.17197	0.14999	0.3093	-0.049591	-0.26642	0.048676	0.17975	-0.004578	0.016632	0.006561	-0.44586	-0.026245	-0.003662	-0.008392
45.904	-0.002899	0.077362	-0.058899	0.006714	-0.001526	0.016022	0.089874	0.001526	-0.034637	0.04425	-0.006714	-0.002136	-0.065765	0.011597	0.037079	-0.00061	0.031281	-0.3212	0.66666	-0.027008	0.20767	-0.1239	-0.15701	-0.14969	0.053711	-0.006866	-0.019684	0.004272	0.019989	-0.053253	-0.001678	0.001526
45.905	0.003967	0.054779	-0.082855	0.009155	0.001068	-0.04837	0.091248	0.002441	-0.031891	0.15106	0.004272	-0.011597	-0.084381	-0.035553	0.037842	0.002289	-0.003357	-0.3215	-0.052032	-0.050659	0.14053	-0.080261	-0.23651	-0.066376	0.19913	0.000916	-0.026093	0.002594	0.22461	-0.081787	0.000763	-0.009613
45.906	0.00473	0.066528	-0.089111	0.02182	0.015869	-0.09552	0.065308	0.003204	-0.025482	0.34851	0.007324	-0.014191	-0.028839	-0.05249	0.029755	0.014191	-0.029297	-0.26154	-0.40146	0.020447	0.13107	-0.053406	-0.2478	0.055237	0.2211	-0.010071	0.034027	0.001373	-0.042725	-0.028992	-0.002441	-0.001831
45.907	-0.006714	0.076752	-0.10468	0.019073	0.014343	-0.12512	0.09491	0.009155	-0.039978	0.2449	0.004883	-0.009003	0.018616	-0.051575	0.036926	0.03006	-0.015869	-0.26123	-0.077972	0.011139	0.34622	-0.10529	-0.13794	0.075684	0.22003	-0.001984	0.046082	0.005646	-0.092316	-0.061951	-0.008087	-0.00824
45.908	-0.005646	0.11307	-0.15854	0.007019	0.031128	-0.14252	0.10269	0.005493	-0.033264	0.2417	0.002899	0.006256	0.053711	-0.032501	0.040436	0.031281	-0.005341	-0.17578	0.066376	0.07309	0.57175	-0.10208	0.016937	0.11032	0.20371	0.003815	0.011749	0.004425	-0.040131	0.005798	0.006714	0.000916
45.909	0.001373	0.13931	-0.13763	-0.009766	0.03418	-0.13245	0.072174	0.000916	-0.020599	0.96542	-0.000458	0.010071	0.065308	0.029907	0.038452	0.00885	0.015564	-0.14984	0.023804	0.10132	0.578	-0.10986	0.004578	0.018921	0.2005	0.003204	-0.04364	0.001984	0.045319	-0.016937	-0.001984	-0.00473
45.91	-0.008087	0.15778	-0.046997	0.026703	0.029602	-0.087585	0.066376	0.001526	-0.017395	1.0039	-0.003204	-0.002594	0.047913	0.061188	0.0177	-0.036469	0.044708	-0.15457	0.15457	0.055084	0.40909	-0.10712	-0.071716	0.015411	0.27191	0	-0.036621	0.000916	0.029907	-0.037079	-0.003357	0.001831
45.911	-0.014801	0.13016	0.044556	0.001984	0.018921	-0.007629	0.069275	0.006561	-0.022583	-0.26276	-0.012665	-0.009766	0.003967	0.10147	0.005798	-0.029755	0.05127	-0.17838	-0.37674	0.15091	0.27542	-0.057068	-0.097809	-0.018311	0.24338	0.001984	0.018768	0.002136	-0.042572	-0.083313	-0.005798	-0.004425
45.912	-0.011139	0.13809	0.025787	0.000305	0.00473	0.10605	0.060425	-0.000916	-0.028076	-0.69382	0.001984	-0.008392	-0.046692	0.1329	-0.022583	0.010681	0.083923	-0.16937	-0.45883	0.071869	0.12848	-0.04715	-0.086365	-0.085602	0.16571	-0.000916	0.049744	0.001221	-0.12802	-0.085754	-0.001678	-0.007629
